<?xml version="1.0" standalone="no"?>
<!DOCTYPE svg PUBLIC "-//W3C//DTD SVG 20010904//EN"
 "http://www.w3.org/TR/2001/REC-SVG-20010904/DTD/svg10.dtd">
<svg version="1.0" xmlns="http://www.w3.org/2000/svg"
 width="439.000000pt" height="132.000000pt" viewBox="0 0 439.000000 132.000000"
 preserveAspectRatio="xMidYMid meet">

<g transform="translate(0.000000,132.000000) scale(0.100000,-0.100000)"
fill="#000000" stroke="none">
<path d="M657 1213 c-4 -3 -7 -23 -7 -43 l0 -37 -67 -12 c-172 -31 -341 -159
-420 -318 -39 -78 -54 -128 -68 -234 -6 -44 -8 -47 -40 -53 -40 -8 -54 -23
-29 -33 9 -3 159 1 333 10 174 9 467 24 651 33 184 10 345 21 358 26 32 11 18
28 -23 28 -30 0 -35 4 -40 28 -19 88 -31 125 -66 198 -84 173 -265 302 -450
320 -94 9 -99 11 -99 43 0 29 -21 57 -33 44z m-267 -272 c-41 -70 -68 -155
-82 -254 -6 -45 -15 -88 -21 -94 -5 -7 -29 -13 -53 -13 -62 0 -70 19 -43 107
11 37 37 97 57 133 38 68 161 203 169 184 2 -7 -10 -35 -27 -63z"/>
<path d="M3100 905 l0 -215 35 0 35 0 0 153 1 152 24 -30 c14 -16 62 -85 107
-152 77 -114 85 -122 116 -123 l32 0 0 215 0 215 -35 0 -35 0 0 -145 c0 -80
-3 -145 -7 -145 -5 1 -52 66 -106 145 -94 140 -99 145 -133 145 l-34 0 0 -215z"/>
<path d="M3595 1000 c-76 -37 -105 -136 -67 -223 27 -60 70 -87 138 -87 90 0
142 53 152 152 12 129 -109 215 -223 158z m123 -63 c50 -53 31 -170 -31 -192
-84 -29 -139 109 -76 189 27 34 77 35 107 3z"/>
<path d="M3975 989 l-35 -31 0 26 c0 22 -4 26 -30 26 l-30 0 0 -160 0 -160 35
0 35 0 0 115 c0 102 2 117 20 135 11 11 29 20 40 20 11 0 29 -9 40 -20 18 -18
20 -33 20 -135 l0 -115 35 0 35 0 0 118 c0 103 3 121 18 135 25 23 58 21 82
-3 18 -18 20 -33 20 -135 l0 -115 35 0 35 0 0 128 c0 108 -3 132 -19 159 -33
53 -121 56 -161 5 -18 -22 -23 -24 -30 -12 -6 8 -10 18 -10 21 0 10 -50 29
-75 29 -13 0 -40 -14 -60 -31z"/>
<path d="M412 390 c-167 -10 -305 -19 -307 -22 -14 -14 53 -182 94 -237 l19
-25 53 24 c51 22 70 24 304 30 l250 6 242 109 c134 61 241 115 240 120 -8 23
-57 13 -241 -50 -215 -72 -320 -92 -332 -61 -11 29 17 45 100 57 103 14 150
30 154 52 3 16 -8 17 -135 16 -76 -1 -274 -10 -441 -19z"/>
</g>
</svg>
